<svg width="28" height="28" viewBox="0 0 28 28" fill="none" xmlns="http://www.w3.org/2000/svg">
<path d="M25 7L25 18C25 18.5304 24.7893 19.0391 24.4142 19.4142C24.0391 19.7893 23.5304 20 23 20H21V24L15 20H14" stroke="#565D6D" stroke-width="2.4" stroke-miterlimit="10" stroke-linecap="square"/>
<path d="M19 4L5 4C4.46957 4 3.96086 4.21071 3.58579 4.58579C3.21071 4.96086 3 5.46957 3 6L3 14C3 14.5304 3.21071 15.0391 3.58579 15.4142C3.96086 15.7893 4.46957 16 5 16H7V21L14 16H19C19.5304 16 20.0391 15.7893 20.4142 15.4142C20.7893 15.0391 21 14.5304 21 14L21 6C21 5.46957 20.7893 4.96086 20.4142 4.58579C20.0391 4.21071 19.5304 4 19 4Z" stroke="#565D6D" stroke-width="2.4" stroke-miterlimit="10" stroke-linecap="square"/>
</svg>
