<svg width="593" height="450" viewBox="0 0 593 450" fill="none" xmlns="http://www.w3.org/2000/svg">
    <ellipse cx="296.5" cy="381.5" rx="296.5" ry="68.5" fill="#EAECF0"/>
    <g clip-path="url(#clip0_0_1)">
    <path d="M436.286 15.438C425.263 31.974 435.717 52.386 442.142 68.514C443.001 70.674 446.256 69.066 445.397 66.93C439.42 51.606 429.437 33.15 439.335 17.406C440.617 15.474 437.58 13.506 436.286 15.45V15.438Z" fill="#BDC1CA"/>
    <path d="M418.942 39.638C420.188 45.89 423.177 51.734 427.545 56.414C429.13 58.106 431.852 55.73 430.255 54.026C426.298 49.802 423.612 44.594 422.487 38.93C422.039 36.65 418.47 37.358 418.929 39.638H418.942Z" fill="#BDC1CA"/>
    <path d="M304.403 46.828C318.875 62.452 302.915 88.372 285.89 68.62C274.262 71.236 273.536 54.136 283.737 60.688C283.737 60.688 285.056 59.98 284.935 55.828C283.458 46.468 300.798 53.824 291.021 42.436C289.823 41.608 296.272 38.524 298.184 42.436C300.096 46.348 304.391 46.816 304.391 46.816L304.403 46.828Z" fill="#FFD3A5"/>
    <path d="M310.232 38.964C307.51 36.708 313.366 32.088 307.752 31.26C302.137 30.432 300.939 33.036 294.732 29.724C283.346 23.16 279.462 32.352 280.636 38.964C280.636 38.964 281.591 39.792 275.021 40.98C268.451 42.168 267.144 47.256 270.605 49.98C274.065 52.704 268.572 53.148 268.221 57.96C267.918 62.052 272.795 65.232 277.502 65.652C273.872 60.6 280.418 56.844 283.757 60.648C283.757 60.648 285.076 59.94 284.955 55.788C283.479 46.428 300.818 53.784 291.042 42.396C289.844 41.568 296.293 38.484 298.205 42.396C300.117 46.308 304.412 46.776 304.412 46.776C304.412 46.776 305.162 47.724 306.13 49.26C306.13 49.26 312.894 47.244 314.927 44.76C316.96 42.276 312.967 41.208 310.244 38.952L310.232 38.964Z" fill="#38193D"/>
    <path d="M309.313 56.11C300.262 55.906 295.217 69.574 285.863 63.682V68.662C297.068 84.25 314.468 71.098 309.313 56.11Z" fill="#38193D"/>
    <path d="M285.882 68.714C285.882 68.714 288.991 75.938 285.882 82.934C290.298 94.13 307.601 107.942 305.109 82.346C305.109 82.346 303.197 76.19 303.669 74.174C303.669 74.174 293.638 79.982 285.87 68.726L285.882 68.714Z" fill="#FFD3A5"/>
    <path d="M286.791 80.258C290.723 80.798 297.463 80.99 303.937 77.582C303.67 76.214 303.513 74.882 303.695 74.138C303.695 74.138 293.664 79.946 285.896 68.69C285.896 68.69 288.267 74.21 286.791 80.27V80.258Z" fill="#010101"/>
    <path d="M315.407 82.848L305.062 82.572C307.554 108.228 290.203 94.284 285.835 83.16L280.62 84.864C280.62 84.864 305.534 159.096 295.624 207.9C295.624 207.9 317.73 208.848 337.32 202.212C337.32 202.212 336.159 135.588 315.419 82.836L315.407 82.848Z" fill="#010101"/>
    <path d="M280.86 84.878C280.86 84.878 214.285 71.93 190.4 162.434C190.4 162.434 195.809 170.174 202.5 168.278C202.5 168.278 222.356 126.17 257.918 130.838C257.918 130.838 252.183 164.498 238.485 193.238C238.485 193.238 251.868 217.25 292.004 215.666C311.594 173.654 279.698 83.054 280.86 84.89V84.878Z" fill="#FFF4CA"/>
    <path d="M393.047 49.09C390.179 43.402 378.709 46.882 378.709 46.882C378.709 46.882 383.488 82.486 363.656 86.998C331.978 94.186 315.244 82.762 315.244 82.762C337.968 141.586 335.366 200.83 338.585 207.862C358.417 206.722 366.778 199.282 366.778 199.282C363.91 159.958 354.158 125.362 354.158 125.362C401.735 106.882 393.059 49.078 393.059 49.078L393.047 49.09Z" fill="#FFF4CA"/>
    <path d="M190.579 162.526C191.655 161.434 177.45 182.686 184.008 179.698C182.726 185.242 183.682 196.714 188.195 181.954C186.114 191.626 194.475 194.554 192.974 182.662C192.974 182.662 194.886 190.366 196.435 189.538C197.984 188.71 197.984 179.35 197.984 179.35C197.984 179.35 200.138 184.798 202.279 183.022C204.421 181.246 201.88 173.026 202.679 168.37C202.679 168.37 197.028 170.23 190.579 162.526Z" fill="#FFD3A5"/>
    <path d="M378.666 47.09C378.63 46.754 378.605 46.55 378.605 46.55C378.436 46.526 391.589 42.854 393.029 49.478C395.146 44.066 404.874 16.55 394.311 32.642C397.36 19.31 391.722 18.566 388.745 31.478C388.564 11.882 382.78 21.554 382.526 32.642C381.8 24.446 379.598 21.902 378.061 23.354C376.524 24.806 377.77 35.978 377.77 35.978C377.77 35.978 377.117 34.886 376.125 33.218C375.133 31.55 370.825 30.746 372.797 35.39C374.273 38.858 377.25 44.462 378.666 47.09Z" fill="#FFD3A5"/>
    <path d="M409.255 234.644C406.859 192.476 366.772 197.156 366.759 197.156C366.832 198.044 366.905 198.932 366.965 199.82C366.965 199.82 358.604 207.26 338.772 208.4L337.332 202.664C317.742 209.3 295.636 208.352 295.636 208.352C292.804 213.884 291.776 216.092 291.776 216.092C263.752 217.196 248.784 205.82 242.299 198.86C237.519 217.544 252.971 249.44 231.736 264.26C216.441 273.74 197.335 264.26 197.335 264.26C191.128 266.624 192.265 275.468 192.265 275.468C234.398 369.128 322.292 300.284 325.619 261.416C368.332 262.04 380.057 295.4 367.909 329.408C376.028 335.564 388.213 331.544 388.213 331.544C388.213 331.544 411.626 276.812 409.23 234.644H409.255Z" fill="#2C8730"/>
    <path d="M337.184 201.468C337.184 201.072 337.16 200.556 337.136 199.932C337.16 200.556 337.172 201.072 337.184 201.468Z" fill="#2C8730"/>
    <path d="M380.745 332.862C402.259 284.13 367.81 233.43 327.215 234.402C329.707 251.382 325.436 261.486 325.436 261.486C368.149 262.11 379.874 295.47 367.726 329.478C371.731 332.514 376.716 333.066 380.745 332.862Z" fill="#1D5A20"/>
    <path d="M192.693 272.186C192.959 269.414 194.036 265.682 197.763 264.254C197.763 264.254 193.939 259.046 188.688 257.858C183.437 256.67 172.208 273.962 176.031 277.046C179.855 280.13 187.877 265.874 192.705 272.186H192.693Z" fill="#010101"/>
    <path d="M367.631 329.682C367.631 329.682 363.807 342.474 367.631 344.37C371.454 346.266 392.472 348.63 395.34 346.734C398.207 344.838 387.692 340.338 387.934 331.806C387.934 331.806 375.75 335.838 367.631 329.67V329.682Z" fill="#010101"/>
    <path d="M266.371 213.01C265.439 223.966 257.55 244.102 243.441 236.158C257.538 241.69 263.164 223.15 266.371 213.01Z" fill="#309535"/>
    <path d="M325.303 225.372C328.86 236.952 328.969 249.708 325.545 261.336C326.948 249.36 326.864 237.324 325.303 225.372Z" fill="#309535"/>
    <path d="M373.668 332.266C380.65 309.802 385.055 280.114 365.949 262.33C354.659 253.21 342.342 242.086 327.192 240.982C342.535 241.234 355.434 252.238 366.844 261.346C386.591 279.226 382.151 309.874 373.681 332.278L373.668 332.266Z" fill="#309535"/>
    <path d="M251.145 237.74C249.039 274.748 225.977 297.368 194.396 266.744C227.743 294.752 246.05 273.884 251.145 237.74Z" fill="#309535"/>
    <path d="M351.769 117.052L354.092 125.248C401.669 106.768 392.994 48.964 392.994 48.964C387.258 96.82 351.769 117.052 351.769 117.052Z" fill="#FFD641"/>
    <path d="M354.163 125.364C351.235 120.456 349.202 115.104 348.149 109.488C351.102 114.444 353.086 119.7 354.163 125.364Z" fill="#FFD641"/>
    <path d="M169.287 172.93C138.843 224.278 170.715 244.27 153.412 283.03C152.516 285.178 155.941 286.366 156.836 284.23C171.731 254.53 151.125 228.286 162.68 196.834C164.943 189.166 168.149 181.81 172.288 174.958C173.486 172.978 170.497 170.938 169.287 172.93Z" fill="#BDC1CA"/>
    <path d="M145.643 204.866C141.626 221.306 142.122 238.646 147.265 254.798C147.954 256.982 151.536 256.334 150.834 254.126C145.885 238.61 145.208 221.906 149.068 206.078C149.612 203.846 146.2 202.622 145.643 204.878V204.866Z" fill="#BDC1CA"/>
    <path d="M426.808 295.312C426.251 337.552 411.356 379.42 385.002 412.612C383.574 414.412 386.127 416.98 387.567 415.156C408.609 388.672 422.645 356.908 427.981 323.608C428.344 320.5 434.019 285.664 426.82 295.312H426.808Z" fill="#BDC1CA"/>
    <path d="M429.813 357.566C424.404 371.582 419.007 385.598 413.599 399.614C412.764 401.786 416.273 402.722 417.096 400.574C422.504 386.558 427.901 372.542 433.31 358.526C434.144 356.354 430.635 355.418 429.813 357.566Z" fill="#BDC1CA"/>
    </g>
    <defs>
    <clipPath id="clip0_0_1">
    <rect width="287" height="416" fill="white" transform="translate(143)"/>
    </clipPath>
    </defs>
      </svg>