 <svg width="593" height="453" viewBox="0 0 593 453" fill="none" xmlns="http://www.w3.org/2000/svg">
      <ellipse cx="296.5" cy="384.5" rx="296.5" ry="68.5" fill="#EAECF0"/>
      <g clip-path="url(#clip0_0_1)">
      <path d="M369.365 150.102C369.365 150.102 353.454 160.29 347.246 173.07C341.039 185.862 330.161 202.59 326.168 189.966C311.091 196.23 290.328 194.97 275.772 191.55C275.772 191.55 263.538 197.394 241.274 192.102C242.799 209.346 234.281 364.71 231.038 382.194C231.038 382.194 265.813 399.246 292.082 377.454L283.758 242.934C336.768 342.414 356.987 210.198 399.53 181.83C399.53 181.83 385.978 150.09 369.353 150.09L369.365 150.102Z" fill="#FFF4CA"/>
      <path d="M304.132 74.434C304.132 74.434 298.639 64.33 283.877 64.966C265.473 64.738 264.976 86.89 251.921 78.862C251.921 78.862 250.323 87.55 254.147 93.382L260.512 92.122L257.801 99.706C271.462 118.99 302.801 113.266 317.019 106.018C309.25 97.438 316.184 73.522 304.12 74.446L304.132 74.434Z" fill="#010101"/>
      <path d="M267.836 105.03C260.915 104.91 261.846 93.354 267.872 94.278C268.199 94.326 268.429 94.638 268.368 94.974C268.32 95.298 268.005 95.526 267.679 95.466C263.214 94.662 262.633 104.658 268.477 103.758C271.236 103.146 271.466 101.034 271.478 101.01C271.539 100.23 272.773 100.35 272.676 101.118C273.039 101.238 271.115 105.234 267.836 105.018V105.03Z" fill="#309535"/>
      <path d="M272.35 110.532C242.487 100.8 230.411 59.7 232.77 29.208C232.77 29.208 225.135 27 216.847 30.792C216.847 30.792 203.162 105.156 238.494 129.864C238.494 129.864 237.223 139.092 232.444 150.144C227.664 161.196 224.809 175.716 224.809 175.716C250.219 177.552 297.07 208.092 332.426 186.132C332.426 186.132 320.641 166.764 320.641 145.5C360.619 142.068 388.134 117.888 365.532 75.3C365.532 75.3 354.073 73.716 348.652 76.884C348.652 76.884 355.343 94.572 350.249 102.624C336.588 117.564 291.806 118.092 272.337 110.532H272.35Z" fill="#2C8730"/>
      <path d="M272.14 76.81C263.32 86.662 265.921 114.67 292.202 97.81C304.52 99.874 301.447 81.79 292.202 89.914H290.29L290.932 84.238C290.932 84.238 281.385 84.082 272.153 76.822L272.14 76.81Z" fill="#FFD3A5"/>
      <path d="M275.887 102.764C275.887 102.764 278.065 107.996 272.402 110.504C272.402 110.504 275.488 117.596 291.085 114.752C291.085 114.752 285.942 107.24 292.198 97.856C285.616 102.536 280.062 103.676 275.887 102.752V102.764Z" fill="#FFD3A5"/>
      <path d="M276.286 105.232C279.081 105.46 284.659 106.06 289.088 107.32C289.088 104.62 289.838 101.368 292.186 97.84C285.603 102.52 280.049 103.66 275.875 102.736C275.875 102.736 276.322 103.816 276.274 105.232H276.286Z" fill="#010101"/>
      <path d="M294.684 105.04C291.417 105.244 289.445 101.272 289.844 101.14C289.76 100.372 290.994 100.24 291.042 101.032C291.042 101.116 291.308 103.168 294.043 103.768C299.899 104.668 299.307 94.672 294.842 95.476C294.515 95.524 294.2 95.308 294.152 94.972C294.103 94.648 294.321 94.336 294.648 94.288C300.674 93.364 301.605 104.92 294.684 105.04Z" fill="#309535"/>
      <path d="M232.993 28.848L234.59 20.676C235.111 20.676 250.103 7.308 236.381 12.864C236.381 12.864 239.491 3.396 236.974 2.328C234.469 1.26 232.993 9.072 232.993 9.072C234.288 -1.476 228.516 -4.2 229.218 8.712C226.568 -1.272 220.833 -2.004 224.559 10.248C221.28 4.02 216.465 2.844 221.099 13.212C222.527 16.404 220.276 29.232 220.276 29.232C220.276 29.232 227.826 26.592 233.005 28.848H232.993Z" fill="#FFD3A5"/>
      <path d="M348.475 76.696L343.78 64.828C343.78 64.828 334.705 61.108 333.278 60.04C331.85 58.972 334.826 56.728 339.606 58.744C339.606 58.744 331.015 47.5 333.52 45.952C336.024 44.416 341.639 52.816 341.639 52.816C336.496 44.308 338.674 32.212 345.583 49.612C345.438 38.824 348.862 32.56 351.198 48.424C351.198 48.424 352.517 39.424 354.9 39.904C357.284 40.384 355.856 54.232 355.856 54.232L363.745 74.932C363.745 74.932 352.589 73.564 348.487 76.684L348.475 76.696Z" fill="#FFD3A5"/>
      <path d="M262.205 186.408C256.881 183.42 248.774 180.996 241.478 179.256V191.772C241.478 191.772 257.595 196.992 275.975 191.22C270.118 189.84 265.266 188.124 262.205 186.408Z" fill="#FFD3A5"/>
      <path d="M241.452 201.616C258.586 201.16 276.058 200.02 292.26 194.116C276.748 201.928 258.537 203.164 241.452 201.616Z" fill="#FFD641"/>
      <path d="M361.651 155.352C374.997 161.676 387.823 173.292 389.977 188.448C385.839 174.012 373.908 163.416 361.651 155.352Z" fill="#FFD641"/>
      <path d="M274.56 199.518C276.012 207.438 278.311 218.418 279.449 226.302C276.145 217.806 274.209 208.65 274.56 199.518Z" fill="#FFD641"/>
      <path d="M381.573 155.308C385.566 146.2 406.547 155.248 409.439 159.82C411.133 163.312 394.157 162.064 391.712 167.524C391.712 167.524 388.494 159.772 381.573 155.308Z" fill="#010101"/>
      <path d="M232.258 370.844C251.642 376.928 275.2 377.936 291.414 363.932C276.398 379.736 251.073 378.98 232.258 370.844Z" fill="#FFD641"/>
      <path d="M249.649 388.126C249.649 388.126 245.063 399.706 249.649 403.81C254.235 407.914 267.944 388.474 267.944 388.474C267.944 388.474 260.018 390.562 249.649 388.126Z" fill="#010101"/>
      <path d="M282.64 97.982C288.46 98.066 288.46 89.006 282.64 89.09C276.82 89.006 276.82 98.066 282.64 97.982Z" fill="#F59393"/>
      <path d="M268.643 83.552C274.609 84.068 273.35 93.416 267.433 92.324C267.094 89.72 267.966 86.06 268.643 83.552Z" fill="#F59393"/>
      <path d="M240.265 130.296C243.085 119.676 247.283 108.084 256.31 101.112C258.004 99.876 256.358 97.044 254.64 98.292C248.275 102.936 244.21 109.992 241.197 117.096C240.132 119.16 233.538 135.936 240.265 130.308V130.296Z" fill="#FFF4CA"/>
      <path d="M232.184 122.312C233.72 110.528 238.73 98.828 247.188 90.284C248.676 88.784 246.353 86.468 244.852 87.968C235.983 96.884 229.957 109.76 228.881 122.312C228.699 124.412 232.002 124.4 232.184 122.312Z" fill="#FFF4CA"/>
      <path d="M221.585 102.98C224.635 91.988 229.704 80.54 239.021 73.412C240.715 72.176 239.07 69.332 237.352 70.592C230.733 75.44 226.147 82.484 222.807 89.852C221.67 91.88 214.7 108.584 221.573 102.992L221.585 102.98Z" fill="#FFF4CA"/>
      <path d="M215.921 72.728C219.721 65.24 226.158 57.596 234.894 56.096C235.777 55.964 236.261 54.872 236.043 54.08C228.904 49.676 217.543 63.092 214.203 69.032C213.804 69.692 213.416 70.376 213.078 71.06C212.158 72.944 215.002 74.6 215.921 72.716V72.728Z" fill="#FFF4CA"/>
      <path d="M216.58 44.788C220.343 41.956 227.01 38.572 232.588 40.084C234.645 40.612 235.528 37.456 233.471 36.928C226.441 33.316 206.065 45.472 216.58 44.788Z" fill="#FFF4CA"/>
      <path d="M321.424 144.158C312.821 138.53 309.469 125.894 313.704 115.946C314.43 113.966 311.248 113.114 310.522 115.082C308.211 121.406 307.642 128.414 310.147 134.774C312.071 139.646 315.411 144.014 319.767 146.99C321.557 148.13 323.215 145.31 321.436 144.17L321.424 144.158Z" fill="#FFF4CA"/>
      <path d="M320.783 112.894C318.424 123.994 319.017 140.794 332.557 144.046C334.614 144.55 335.497 141.394 333.428 140.89C315.084 136.57 328.781 105.034 320.771 112.894H320.783Z" fill="#FFF4CA"/>
      <path d="M333.293 110.888C333.451 121.64 335.483 137.024 347.898 140.084C349.967 140.516 350.85 137.36 348.781 136.928C332.676 134.276 339.585 101.36 333.293 110.888Z" fill="#FFF4CA"/>
      <path d="M348.385 102.622C351.193 133.654 378.285 123.862 368.774 120.754C366.16 121.606 363.765 121.822 361.296 120.814C354.871 117.91 352.584 108.478 351.713 102.862C351.882 100.63 348.398 100.354 348.385 102.634V102.622Z" fill="#FFF4CA"/>
      <path d="M350.746 94.73C355.828 101.366 366.113 106.862 373.748 101.054C374.474 100.538 374.825 99.626 374.341 98.822C373.93 98.114 372.817 97.718 372.079 98.234C361.116 107.066 349.137 84.314 350.746 94.742V94.73Z" fill="#FFF4CA"/>
      <path d="M349.601 84.452C354.26 85.124 369.252 89.924 370.813 84.032C370.595 83.252 369.615 82.568 368.78 82.892C362.839 84.476 356.365 82.52 350.485 81.296C348.428 80.768 347.556 83.912 349.613 84.452H349.601Z" fill="#FFF4CA"/>
      <path d="M247.794 108.09C266.441 119.13 288.39 130.038 310.69 126.246C312.771 125.802 311.888 122.658 309.819 123.09C288.402 126.642 267.384 115.758 249.464 105.27C247.686 104.106 246.028 106.938 247.807 108.09H247.794Z" fill="#FFF4CA"/>
      <path d="M240.98 121.138C257.617 129.082 275.126 135.742 293.336 139.018C296.131 139.786 321.796 142.846 314.003 136.894C289.065 138.526 264.889 128.398 242.637 118.318C240.75 117.37 239.08 120.19 240.968 121.138H240.98Z" fill="#FFF4CA"/>
      <path d="M236.131 138.828C261.299 154.212 292.517 160.464 321.629 154.776C323.711 154.368 322.827 151.224 320.758 151.62C294.392 156.732 266.272 151.68 242.786 138.924C241.092 138.012 239.41 137.064 237.813 135.996C236.058 134.808 234.4 137.652 236.155 138.816L236.131 138.828Z" fill="#FFF4CA"/>
      <path d="M230.335 155.076C257.814 172.416 293.013 174.288 324.073 166.8C326.13 166.308 325.259 163.152 323.202 163.644C294.828 170.46 262.956 169.356 236.893 155.208C235.223 154.308 233.541 153.36 232.005 152.256C230.286 151.02 228.641 153.852 230.335 155.076Z" fill="#FFF4CA"/>
      <path d="M226.004 169.006C243.161 176.722 262.025 179.878 280.272 184.102C296.692 188.434 314.273 188.542 329.652 180.646C331.576 179.77 329.906 176.95 327.982 177.826C313.934 184.99 297.853 185.146 282.801 181.306C264.276 177.286 245.146 173.614 227.673 166.198C225.774 165.274 224.104 168.094 226.004 169.018V169.006Z" fill="#FFF4CA"/>
      <path d="M325.421 254.67C300.579 265.146 283.664 242.778 283.664 242.778C336.674 342.258 356.893 210.042 399.436 181.674C358.357 192.09 350.25 244.194 325.409 254.67H325.421Z" fill="#FFD641"/>
      <path d="M194.286 15.438C183.263 31.974 193.717 52.386 200.142 68.514C201.001 70.674 204.256 69.066 203.397 66.93C197.42 51.606 187.437 33.15 197.335 17.406C198.617 15.474 195.58 13.506 194.286 15.45V15.438Z" fill="#BDC1CA"/>
      <path d="M176.942 39.638C178.188 45.89 181.177 51.734 185.545 56.414C187.13 58.106 189.852 55.73 188.255 54.026C184.298 49.802 181.612 44.594 180.487 38.93C180.039 36.65 176.47 37.358 176.929 39.638H176.942Z" fill="#BDC1CA"/>
      <path d="M410.757 206.36C380.313 257.708 412.185 277.7 394.882 316.46C393.986 318.608 397.41 319.796 398.306 317.66C413.201 287.96 392.595 261.716 404.15 230.264C406.413 222.596 409.619 215.24 413.758 208.388C414.956 206.408 411.955 204.368 410.757 206.36Z" fill="#BDC1CA"/>
      <path d="M387.133 238.306C383.116 254.746 383.612 272.086 388.755 288.238C389.444 290.422 393.026 289.774 392.324 287.566C387.375 272.05 386.698 255.346 390.558 239.518C391.102 237.286 387.69 236.062 387.133 238.318V238.306Z" fill="#BDC1CA"/>
      <path d="M184.807 295.312C184.251 337.552 169.356 379.42 143.002 412.612C141.574 414.412 144.127 416.98 145.567 415.156C166.609 388.672 180.645 356.908 185.981 323.608C186.344 320.5 192.019 285.664 184.82 295.312H184.807Z" fill="#BDC1CA"/>
      <path d="M187.813 357.566C182.404 371.582 177.007 385.598 171.599 399.614C170.764 401.786 174.273 402.722 175.096 400.574C180.504 386.558 185.901 372.542 191.31 358.526C192.144 356.354 188.635 355.418 187.813 357.566Z" fill="#BDC1CA"/>
      </g>
      <defs>
      <clipPath id="clip0_0_1">
      <rect width="232" height="416" fill="white" transform="translate(182)"/>
      </clipPath>
      </defs>
      </svg>